<svg width="1200" height="560" viewBox="0 0 1200 560" fill="none" xmlns="http://www.w3.org/2000/svg" role="img" aria-label="EvolveMemory architecture">
  <rect width="1200" height="560" rx="18" fill="#111416"/>
  <rect x="32" y="32" width="1136" height="496" rx="14" fill="#171b1d" stroke="#2b3437"/>
  <text x="64" y="82" fill="#f4f0e8" font-family="Arial, sans-serif" font-size="28" font-weight="700">EvolveMemory Architecture</text>
  <text x="64" y="112" fill="#aeb9b6" font-family="Arial, sans-serif" font-size="15">From dialogue to structured memory, then to adaptive response policy.</text>

  <defs>
    <marker id="arrow" markerWidth="10" markerHeight="10" refX="8" refY="5" orient="auto">
      <path d="M0,0 L10,5 L0,10 Z" fill="#65d6c7"/>
    </marker>
    <filter id="glow" x="-20%" y="-20%" width="140%" height="140%">
      <feGaussianBlur stdDeviation="2.5" result="blur"/>
      <feMerge>
        <feMergeNode in="blur"/>
        <feMergeNode in="SourceGraphic"/>
      </feMerge>
    </filter>
  </defs>

  <g font-family="Arial, sans-serif">
    <rect x="68" y="178" width="160" height="78" rx="10" fill="#242b2c" stroke="#49615d"/>
    <text x="92" y="211" fill="#f4f0e8" font-size="17" font-weight="700">Input</text>
    <text x="92" y="236" fill="#b8c5c1" font-size="13">dialogue / LLM JSON</text>

    <rect x="274" y="172" width="180" height="90" rx="10" fill="#22292a" stroke="#49615d"/>
    <text x="300" y="205" fill="#f4f0e8" font-size="17" font-weight="700">Extraction</text>
    <text x="300" y="230" fill="#b8c5c1" font-size="13">candidate memories</text>

    <rect x="500" y="152" width="190" height="130" rx="10" fill="#22292a" stroke="#65d6c7"/>
    <text x="526" y="188" fill="#f4f0e8" font-size="17" font-weight="700">Write Policy</text>
    <text x="526" y="214" fill="#b8c5c1" font-size="13">stability</text>
    <text x="526" y="236" fill="#b8c5c1" font-size="13">reuse</text>
    <text x="526" y="258" fill="#b8c5c1" font-size="13">personalization gain</text>

    <rect x="736" y="156" width="188" height="122" rx="10" fill="#22292a" stroke="#d1b15f"/>
    <text x="762" y="191" fill="#f4f0e8" font-size="17" font-weight="700">Memory Store</text>
    <text x="762" y="216" fill="#b8c5c1" font-size="13">state machine</text>
    <text x="762" y="238" fill="#b8c5c1" font-size="13">correction / audit</text>
    <text x="762" y="260" fill="#b8c5c1" font-size="13">JSON / SQLite</text>

    <rect x="970" y="178" width="160" height="78" rx="10" fill="#242b2c" stroke="#49615d"/>
    <text x="996" y="211" fill="#f4f0e8" font-size="17" font-weight="700">Profile</text>
    <text x="996" y="236" fill="#b8c5c1" font-size="13">inferred traits</text>

    <rect x="276" y="354" width="178" height="86" rx="10" fill="#22292a" stroke="#49615d"/>
    <text x="300" y="388" fill="#f4f0e8" font-size="17" font-weight="700">Retrieval</text>
    <text x="300" y="414" fill="#b8c5c1" font-size="13">query-aware memory</text>

    <rect x="502" y="340" width="188" height="114" rx="10" fill="#22292a" stroke="#65d6c7"/>
    <text x="526" y="376" fill="#f4f0e8" font-size="17" font-weight="700">Response Policy</text>
    <text x="526" y="402" fill="#b8c5c1" font-size="13">tone / detail</text>
    <text x="526" y="424" fill="#b8c5c1" font-size="13">structure / empathy</text>

    <rect x="738" y="354" width="186" height="86" rx="10" fill="#22292a" stroke="#49615d"/>
    <text x="762" y="388" fill="#f4f0e8" font-size="17" font-weight="700">Prompt Context</text>
    <text x="762" y="414" fill="#b8c5c1" font-size="13">model-ready guidance</text>

    <path d="M228 217 H274" stroke="#65d6c7" stroke-width="2.5" marker-end="url(#arrow)" filter="url(#glow)"/>
    <path d="M454 217 H500" stroke="#65d6c7" stroke-width="2.5" marker-end="url(#arrow)" filter="url(#glow)"/>
    <path d="M690 217 H736" stroke="#65d6c7" stroke-width="2.5" marker-end="url(#arrow)" filter="url(#glow)"/>
    <path d="M924 217 H970" stroke="#65d6c7" stroke-width="2.5" marker-end="url(#arrow)" filter="url(#glow)"/>
    <path d="M830 278 V326 C830 346 812 354 792 354" stroke="#65d6c7" stroke-width="2.5" marker-end="url(#arrow)" filter="url(#glow)"/>
    <path d="M736 397 H690" stroke="#65d6c7" stroke-width="2.5" marker-end="url(#arrow)" filter="url(#glow)"/>
    <path d="M502 397 H454" stroke="#65d6c7" stroke-width="2.5" marker-end="url(#arrow)" filter="url(#glow)"/>
  </g>
</svg>
